<?xml version="1.0" standalone="no"?>
<!DOCTYPE svg PUBLIC "-//W3C//DTD SVG 20010904//EN"
 "http://www.w3.org/TR/2001/REC-SVG-20010904/DTD/svg10.dtd">
<svg version="1.0" xmlns="http://www.w3.org/2000/svg"
 width="512.000000pt" height="512.000000pt" viewBox="0 0 512.000000 512.000000"
 preserveAspectRatio="xMidYMid meet">

<g transform="translate(0.000000,512.000000) scale(0.100000,-0.100000)"
fill="#000000" stroke="none">
<path d="M3005 5099 c-137 -10 -333 -25 -435 -34 -102 -8 -698 -51 -1324 -95
-627 -44 -1141 -81 -1142 -83 -4 -4 297 -4291 301 -4295 4 -4 430 24 523 34
l52 5 0 1820 0 1819 1465 0 1465 0 0 -1950 c0 -1072 1 -1950 3 -1950 1 0 146
-16 321 -35 176 -19 321 -33 324 -31 4 5 462 4234 462 4271 0 20 -32 24 -827
109 -456 48 -835 90 -844 92 -17 5 -20 26 -35 247 -7 97 -7 97 -33 96 -14 -1
-138 -10 -276 -20z"/>
<path d="M1875 3470 c-168 -24 -308 -120 -379 -262 -98 -194 -58 -430 95 -572
104 -96 215 -138 374 -139 104 -1 176 14 260 54 65 31 155 103 155 124 0 11
-146 150 -178 169 -8 5 -27 -5 -49 -25 -98 -85 -239 -93 -321 -16 -48 44 -67
96 -67 182 0 63 5 89 22 120 41 78 105 115 197 115 67 0 96 -12 159 -63 55
-45 39 -51 165 63 l84 75 -52 48 c-115 105 -287 152 -465 127z"/>
<path d="M2383 3453 c8 -14 164 -387 171 -408 3 -11 55 -135 114 -275 l109
-255 159 -3 159 -2 195 461 c107 254 196 468 198 476 3 11 -25 13 -154 11
l-158 -3 -106 -254 c-59 -139 -111 -260 -116 -268 -6 -10 -40 61 -119 256
l-110 271 -173 0 c-95 0 -171 -3 -169 -7z"/>
<path d="M1470 1970 l0 -150 980 0 980 0 0 150 0 150 -980 0 -980 0 0 -150z"/>
<path d="M1470 1441 l0 -148 970 -7 c533 -4 974 -5 980 -1 6 4 10 63 10 156
l0 149 -980 0 -980 0 0 -149z"/>
<path d="M2018 1053 l-548 -3 0 -150 0 -150 980 0 981 0 -3 153 -3 152 -430 0
c-236 0 -676 -1 -977 -2z"/>
</g>
</svg>
